# xmcd
#
# Track frame offsets:
#	150
#	15048
#	28858
#	48910
#	60500
#	74753
#	83350
#	99695
#	119410
#	133830
#	147803
#	163845
#
# Disc length: 2346 seconds
#
# Revision: 1
# Processed by: cddbd v1.5.2PL0 Copyright (c) Steve Scherf et al.
# Submitted via: audiograbber 1.83.01
#
DISCID=9e09280c
DTITLE=Beutling Brothers - Turn The Green Gras Blue
DYEAR=1900
DGENRE=
TTITLE0=Turn The Green Gras Blue
TTITLE1=Rambling Fever
TTITLE2=One At A Time
TTITLE3=Wandering On My Way
TTITLE4=Glory
TTITLE5=Mighty Rock
TTITLE6=John Hardy
TTITLE7=Stay With Me
TTITLE8=Lost And Blue
TTITLE9=You Are The One
TTITLE10=Crippled Sam
TTITLE11=Country Life Looks Better
EXTD=
EXTT0=
EXTT1=
EXTT2=
EXTT3=
EXTT4=
EXTT5=
EXTT6=
EXTT7=
EXTT8=
EXTT9=
EXTT10=
EXTT11=
PLAYORDER=
